<?xml version="1.0" encoding="utf-8"?>
<!-- Generator: Adobe Illustrator 26.4.1, SVG Export Plug-In . SVG Version: 6.00 Build 0)  -->
<svg version="1.1" id="Calque_1" xmlns="http://www.w3.org/2000/svg" xmlns:xlink="http://www.w3.org/1999/xlink" x="0px" y="0px"
	 width="199.4px" height="199.2px" viewBox="0 0 199.4 199.2" style="enable-background:new 0 0 199.4 199.2;" xml:space="preserve"
	>
<style type="text/css">
	.st0{fill:#FFFFFF;}
</style>
<g>
	<path class="st0" d="M99.8,199c-26.6,0-51.6-10.3-70.4-29.1C10.7,151.1,0.3,126.1,0.3,99.5c0-26.6,10.3-51.6,29.1-70.4
		C48.3,10.3,73.3,0,99.8,0s51.6,10.3,70.4,29.1c18.8,18.8,29.1,43.8,29.1,70.4c0,26.6-10.3,51.6-29.1,70.4
		C151.4,188.7,126.4,199,99.8,199z M99.8,5.1c-25.2,0-48.9,9.8-66.7,27.6C15.3,50.6,5.5,74.3,5.5,99.5s9.8,48.9,27.6,66.7
		s41.5,27.6,66.7,27.6c25.2,0,48.9-9.8,66.7-27.6c17.8-17.8,27.6-41.5,27.6-66.7s-9.8-48.9-27.6-66.7C148.8,14.9,125.1,5.1,99.8,5.1
		z"/>
	<path class="st0" d="M132.1,96.9h-29.7V67.2c0-1.5-1.2-2.6-2.6-2.6c-1.5,0-2.6,1.2-2.6,2.6v29.7H67.5c-1.5,0-2.6,1.2-2.6,2.6
		c0,1.5,1.2,2.6,2.6,2.6h29.7v29.7c0,1.5,1.2,2.6,2.6,2.6c1.5,0,2.6-1.2,2.6-2.6v-29.7h29.7c1.5,0,2.6-1.2,2.6-2.6
		C134.8,98,133.6,96.9,132.1,96.9z"/>
</g>
</svg>
