<?xml version="1.0" encoding="iso-8859-1"?>
<!-- Generator: Adobe Illustrator 26.3.1, SVG Export Plug-In . SVG Version: 6.00 Build 0)  -->
<svg version="1.1" id="Calque_1" xmlns="http://www.w3.org/2000/svg" xmlns:xlink="http://www.w3.org/1999/xlink" x="0px" y="0px"
	 width="649.115px" height="241.675px" viewBox="0 0 649.115 241.675" enable-background="new 0 0 649.115 241.675"
	 xml:space="preserve">
<g>
	<path fill="#FFFFFF" d="M150.536,217.997L68.776,87.518v130.479H24.817V19.478h53.76l74.479,120.68V19.478h44.24v198.52H150.536z"
		/>
	<path fill="#FFFFFF" d="M357.179,148.278c0,43.12-32.2,73.92-73.92,73.92c-41.44,0-73.919-30.8-73.919-73.92
		s32.479-73.64,73.919-73.64C324.978,74.638,357.179,105.158,357.179,148.278z M314.618,148.278c0-23.52-15.12-34.439-31.36-34.439
		c-15.96,0-31.36,10.92-31.36,34.439c0,23.24,15.4,34.72,31.36,34.72C299.498,182.997,314.618,171.797,314.618,148.278z"/>
	<path fill="#FFFFFF" d="M447.898,217.997h-42.84l-57.12-139.159h46.2l32.2,86.52l29.68-86.52h44.8L447.898,217.997z"/>
	<path fill="#FFFFFF" d="M538.339,137.638l32.76-5.04c7.56-1.12,10.08-4.76,10.08-9.521c0-8.12-7-15.119-20.439-15.119
		c-14.84,0-22.96,10.079-23.8,20.439l-36.959-7.56c1.68-19.88,20.16-46.2,61.04-46.2c45.08,0,61.6,25.2,61.6,53.76v68.04
		c0,10.92,1.4,20.159,1.68,21.56h-38.36c-0.28-1.12-1.4-6.16-1.4-15.68c-7.28,11.76-20.72,19.6-39.2,19.6
		c-30.52,0-48.16-20.16-48.16-42.279C497.179,154.997,515.379,140.997,538.339,137.638z M581.179,163.398v-6.16l-26.32,4.2
		c-8.96,1.399-15.68,5.6-15.68,15.399c0,7.28,4.76,14.28,16.52,14.28C568.299,191.118,581.179,184.957,581.179,163.398z"/>
</g>
<g>
</g>
<g>
</g>
<g>
</g>
<g>
</g>
<g>
</g>
<g>
</g>
<g>
</g>
<g>
</g>
<g>
</g>
<g>
</g>
<g>
</g>
<g>
</g>
<g>
</g>
<g>
</g>
<g>
</g>
</svg>
