<?xml version="1.0" encoding="utf-8"?>
<!-- Generator: Adobe Illustrator 26.3.1, SVG Export Plug-In . SVG Version: 6.00 Build 0)  -->
<svg version="1.1" id="Calque_1" xmlns="http://www.w3.org/2000/svg" xmlns:xlink="http://www.w3.org/1999/xlink" x="0px" y="0px"
	 width="415.8px" height="384.1px" viewBox="0 0 415.8 384.1" style="enable-background:new 0 0 415.8 384.1;" xml:space="preserve"
	>
<style type="text/css">
	.st0{fill:#FFFFFF;}
</style>
<g>
	<path class="st0" d="M322.7,226.7c-32.6,24.6-61.8,53.5-86.7,85.8c-7.7,11.5-25,38.5-16,53.7c8.2,13.9,36.1,4.1,48,0.9
		c42.6-11.5,79-39,101.8-76.8c22.7-37.8,30-82.9,20.2-125.9C368.3,186,345.8,206.7,322.7,226.7L322.7,226.7z"/>
	<path class="st0" d="M87.1,323.2c7.3-2,15.2-4.5,23.5-7.6c1-0.3,1.9-0.7,2.9-1.1c49.5-20.1,96.3-46.2,139.3-77.9
		c44.7-31,85.2-67.7,120.6-109c1.6-1.9,3.1-3.9,4.6-5.8c29.6-38.2,37.7-67.3,23.9-86.5c-14.5-20.2-46.9-21.2-96.6-2.9l0,0
		c-0.2,0.1-0.4,0.1-0.6,0.2c-37.9-22.6-83.1-29.7-126.1-19.7c-43,10-80.4,36.3-104.4,73.3c-24,37-32.7,81.9-24.3,125.3
		c-34.7,40.2-52.5,77.8-35.8,101.1C26.1,329.6,50.6,333.1,87.1,323.2L87.1,323.2z M336.8,55.7c27.4-7.4,37.9-3.6,39.2-1.8l0,0
		c1.2,1.7,1.4,12.6-13.7,35.4c-7.5-12.1-16.6-23.3-26.9-33.2C335.9,56,336.3,55.9,336.8,55.7L336.8,55.7z M61.3,248.1
		c6.6,15.2,15.5,29.3,26.3,41.9c-33.7,10.6-46.3,6.2-47.7,4.3C38.5,292.3,38.5,278.2,61.3,248.1L61.3,248.1z"/>
</g>
</svg>
