<?xml version="1.0" encoding="iso-8859-1"?>
<!-- Generator: Adobe Illustrator 26.3.1, SVG Export Plug-In . SVG Version: 6.00 Build 0)  -->
<svg version="1.1" id="Calque_1" xmlns="http://www.w3.org/2000/svg" xmlns:xlink="http://www.w3.org/1999/xlink" x="0px" y="0px"
	 width="1149.766px" height="404.094px" viewBox="0 0 1149.766 404.094" enable-background="new 0 0 1149.766 404.094"
	 xml:space="preserve">
<g>
	<g>
		<path fill="#FFFFFF" d="M336.708,237.709c-32.594,24.603-61.755,53.451-86.713,85.772c-7.743,11.503-24.958,38.496-15.975,53.684
			c8.22,13.889,36.067,4.14,48.03,0.914c42.57-11.478,79.044-38.992,101.777-76.773c22.732-37.777,29.957-82.892,20.157-125.882
			c-21.664,21.537-44.187,42.292-67.273,62.284L336.708,237.709z"/>
		<path fill="#FFFFFF" d="M101.134,334.249c7.323-1.974,15.196-4.507,23.501-7.572c0.975-0.345,1.902-0.718,2.871-1.102
			c49.472-20.066,96.253-46.22,139.255-77.854c44.695-31.034,85.23-67.662,120.616-108.985c1.576-1.944,3.112-3.881,4.569-5.796
			c29.605-38.175,37.67-67.288,23.899-86.485c-14.453-20.205-46.931-21.199-96.587-2.915l0.003-0.004
			c-0.206,0.063-0.404,0.146-0.596,0.246c-37.893-22.623-83.083-29.671-126.063-19.664C149.616,34.125,112.189,60.411,88.19,97.446
			c-24.001,37.032-32.71,81.933-24.291,125.252c-34.701,40.163-52.536,77.756-35.837,101.097
			c12.056,16.783,36.568,20.292,73.072,10.45L101.134,334.249z M350.78,66.749c27.375-7.381,37.948-3.572,39.194-1.849l0.01,0.038
			c1.235,1.681,1.427,12.612-13.655,35.393c-7.535-12.149-16.582-23.294-26.918-33.173C349.86,66.997,350.322,66.872,350.78,66.749
			L350.78,66.749z M75.272,259.078c6.646,15.191,15.512,29.309,26.307,41.896c-33.695,10.648-46.279,6.227-47.653,4.334
			C52.53,303.339,52.476,289.247,75.272,259.078L75.272,259.078z"/>
	</g>
	<g>
		<path fill="#FFFFFF" d="M654.274,294.428l-81.76-130.479v130.479h-43.959V95.908h53.76l74.479,120.68V95.908h44.24v198.52H654.274
			z"/>
		<path fill="#FFFFFF" d="M860.916,224.708c0,43.12-32.2,73.92-73.92,73.92c-41.44,0-73.919-30.8-73.919-73.92
			s32.479-73.64,73.919-73.64C828.716,151.069,860.916,181.588,860.916,224.708z M818.356,224.708
			c0-23.52-15.12-34.439-31.36-34.439c-15.96,0-31.36,10.92-31.36,34.439c0,23.24,15.4,34.72,31.36,34.72
			C803.236,259.428,818.356,248.228,818.356,224.708z"/>
		<path fill="#FFFFFF" d="M951.636,294.428h-42.84l-57.12-139.159h46.2l32.2,86.52l29.68-86.52h44.8L951.636,294.428z"/>
		<path fill="#FFFFFF" d="M1042.076,214.069l32.76-5.04c7.56-1.12,10.08-4.76,10.08-9.521c0-8.12-7-15.119-20.439-15.119
			c-14.84,0-22.96,10.079-23.8,20.439l-36.96-7.56c1.68-19.88,20.16-46.2,61.04-46.2c45.08,0,61.6,25.2,61.6,53.76v68.04
			c0,10.92,1.4,20.159,1.68,21.56h-38.36c-0.28-1.12-1.4-6.16-1.4-15.68c-7.28,11.76-20.72,19.6-39.2,19.6
			c-30.52,0-48.16-20.16-48.16-42.279C1000.917,231.428,1019.117,217.428,1042.076,214.069z M1084.916,239.828v-6.16l-26.32,4.2
			c-8.96,1.399-15.68,5.6-15.68,15.399c0,7.28,4.76,14.28,16.52,14.28C1072.036,267.548,1084.916,261.388,1084.916,239.828z"/>
	</g>
</g>
<g>
</g>
<g>
</g>
<g>
</g>
<g>
</g>
<g>
</g>
<g>
</g>
<g>
</g>
<g>
</g>
<g>
</g>
<g>
</g>
<g>
</g>
<g>
</g>
<g>
</g>
<g>
</g>
<g>
</g>
</svg>
