<?xml version="1.0" encoding="iso-8859-1"?>
<!-- Generator: Adobe Illustrator 26.3.1, SVG Export Plug-In . SVG Version: 6.00 Build 0)  -->
<svg version="1.1" id="Calque_1" xmlns="http://www.w3.org/2000/svg" xmlns:xlink="http://www.w3.org/1999/xlink" x="0px" y="0px"
	 width="91.395px" height="96.209px" viewBox="0 0 91.395 96.209" enable-background="new 0 0 91.395 96.209" xml:space="preserve">
<path fill="#FFFFFF" d="M88.533,85.438L71.526,68.431c6.342-7.11,10.281-16.527,10.281-26.808c0-22.196-18.064-40.26-40.26-40.26
	s-40.26,18.064-40.26,40.26s18.064,40.26,40.26,40.26c7.879,0,15.181-2.306,21.331-6.149l17.68,17.68
	c1.057,1.057,2.498,1.633,3.94,1.633c1.441,0,2.883-0.576,3.94-1.633C90.743,91.203,90.743,87.648,88.533,85.438L88.533,85.438z
	 M12.53,41.624c0-15.95,12.972-29.018,29.018-29.018s28.922,13.068,28.922,29.018c0,15.95-12.972,29.018-28.922,29.018
	S12.53,57.669,12.53,41.624L12.53,41.624z"/>
<g>
</g>
<g>
</g>
<g>
</g>
<g>
</g>
<g>
</g>
<g>
</g>
<g>
</g>
<g>
</g>
<g>
</g>
<g>
</g>
<g>
</g>
<g>
</g>
<g>
</g>
<g>
</g>
<g>
</g>
<g>
</g>
<g>
</g>
<g>
</g>
<g>
</g>
<g>
</g>
</svg>
