<?xml version="1.0" encoding="utf-8"?>
<!-- Generator: Adobe Illustrator 26.3.1, SVG Export Plug-In . SVG Version: 6.00 Build 0)  -->
<svg version="1.1" id="Calque_1" xmlns="http://www.w3.org/2000/svg" xmlns:xlink="http://www.w3.org/1999/xlink" x="0px" y="0px"
	 width="509.4px" height="513.8px" viewBox="0 0 509.4 513.8" style="enable-background:new 0 0 509.4 513.8;" xml:space="preserve"
	>
<style type="text/css">
	.st0{fill:#FFFFFF;}
</style>
<path class="st0" d="M254.7,500.7c-64.8,0-125.8-25.2-171.6-71.1c-45.8-45.8-71-106.8-71-171.6S37.3,132.2,83.2,86.4
	C129,40.6,189.9,15.3,254.7,15.3s125.8,25.2,171.6,71.1c45.8,45.8,71.1,106.8,71.1,171.6s-25.2,125.8-71.1,171.6
	C380.5,475.4,319.5,500.7,254.7,500.7L254.7,500.7z M254.7,52.7C141.5,52.7,49.4,144.8,49.4,258s92.1,205.3,205.3,205.3
	S460,371.2,460,258C460.1,144.8,367.9,52.7,254.7,52.7L254.7,52.7z"/>
<circle class="st0" cx="254.7" cy="258" r="168"/>
</svg>
