<?xml version="1.0" encoding="utf-8"?>
<!-- Generator: Adobe Illustrator 26.3.1, SVG Export Plug-In . SVG Version: 6.00 Build 0)  -->
<svg version="1.1" id="Calque_1" xmlns="http://www.w3.org/2000/svg" xmlns:xlink="http://www.w3.org/1999/xlink" x="0px" y="0px"
	 width="700px" height="700px" viewBox="0 0 700 700" style="enable-background:new 0 0 700 700;" xml:space="preserve">
<style type="text/css">
	.st0{fill:#27242B;}
	.st1{fill:#FFFFFF;}
</style>
<symbol  id="a" viewBox="-8.2 -8 16.4 16.1">
	<path d="M8.2-0.1v1.4H-3.2c0.1,1.1,0.5,2,1.2,2.6c0.7,0.6,1.7,0.9,3,0.9c1,0,2.1-0.1,3.2-0.5C5.2,4,6.3,3.6,7.5,2.9v3.8
		C6.3,7.1,5.2,7.5,4,7.7C2.9,7.9,1.7,8,0.5,8c-2.8,0-4.9-0.7-6.5-2.1C-7.5,4.5-8.2,2.6-8.2,0c0-2.5,0.8-4.5,2.3-5.9
		C-4.4-7.3-2.4-8,0.3-8C2.7-8,4.6-7.3,6-5.9C7.5-4.4,8.2-2.5,8.2-0.1L8.2-0.1z M3.2-1.7c0-0.9-0.3-1.7-0.8-2.2
		C1.8-4.5,1.1-4.8,0.3-4.8c-0.9,0-1.7,0.3-2.3,0.8s-1,1.3-1.1,2.3H3.2z"/>
</symbol>
<symbol  id="b" viewBox="-6.2 -9.8 12.4 19.7">
	<path d="M1.1-9.8v4.3h5V-2h-5v6.5c0,0.7,0.1,1.2,0.4,1.4s0.8,0.4,1.7,0.4h2.5v3.5H1.6c-1.9,0-3.3-0.4-4.1-1.2
		c-0.8-0.8-1.2-2.2-1.2-4.1V-2h-2.4v-3.5h2.4v-4.3H1.1z"/>
</symbol>
<symbol  id="c" viewBox="-5.7 -7.8 11.4 15.7">
	<path d="M5.7-3.3C5.2-3.5,4.8-3.6,4.4-3.7C4-3.8,3.6-3.9,3.1-3.9c-1.3,0-2.2,0.4-2.9,1.2c-0.7,0.8-1,2-1,3.5v7.1h-4.9V-7.5h4.9V-5
		c0.6-1,1.3-1.7,2.2-2.2c0.8-0.5,1.8-0.7,2.9-0.7c0.2,0,0.3,0,0.5,0c0.2,0,0.5,0,0.8,0.1L5.7-3.3z"/>
</symbol>
<symbol  id="d" viewBox="-9.1 -10.2 18.3 20.4">
	<path d="M-9.1-10.2h5.9l7.4,14v-14h5v20.4H3.3l-7.4-14v14h-5V-10.2z"/>
</symbol>
<symbol  id="e" viewBox="-7.7 -8 15.5 16.1">
	<path d="M0.3,0.8c-1,0-1.8,0.2-2.3,0.5c-0.5,0.3-0.8,0.9-0.8,1.5c0,0.6,0.2,1.1,0.6,1.5c0.4,0.3,1,0.5,1.7,0.5c0.9,0,1.7-0.3,2.3-1
		c0.6-0.7,1-1.5,1-2.5V0.8L0.3,0.8z M7.7-1.1v8.7H2.8V5.4C2.2,6.3,1.4,7,0.6,7.4C-0.2,7.8-1.2,8-2.4,8C-4,8-5.3,7.6-6.3,6.7
		c-1-0.9-1.5-2.1-1.5-3.6c0-1.8,0.6-3.1,1.8-3.9c1.2-0.8,3.2-1.3,5.8-1.3h2.9v-0.4c0-0.8-0.3-1.3-0.9-1.7C1.3-4.6,0.3-4.8-1-4.8
		c-1.1,0-2,0.1-2.9,0.3c-0.9,0.2-1.7,0.5-2.5,0.9v-3.7c1-0.2,2.1-0.4,3.1-0.6C-2.2-8-1.1-8-0.1-8c2.8,0,4.8,0.5,6,1.6
		C7.1-5.3,7.7-3.5,7.7-1.1L7.7-1.1z"/>
</symbol>
<symbol  id="f" viewBox="-8.4 -8 16.8 16.1">
	<path d="M0-4.5c-1.1,0-1.9,0.4-2.5,1.2C-3-2.6-3.3-1.5-3.3,0S-3,2.6-2.5,3.4C-1.9,4.2-1.1,4.5,0,4.5c1.1,0,1.9-0.4,2.4-1.2
		C3,2.6,3.3,1.5,3.3,0S3-2.6,2.5-3.4C1.9-4.1,1.1-4.5,0-4.5z M0-8c2.6,0,4.7,0.7,6.2,2.1C7.7-4.5,8.4-2.5,8.4,0
		c0,2.5-0.7,4.5-2.2,5.9C4.7,7.3,2.7,8,0,8c-2.6,0-4.7-0.7-6.2-2.1C-7.7,4.5-8.4,2.5-8.4,0c0-2.5,0.7-4.5,2.2-5.9
		C-4.7-7.3-2.6-8,0-8z"/>
</symbol>
<symbol  id="g" viewBox="-5.9 -10.6 11.9 21.3">
	<path d="M5.9-10.6v3.2H3.2C2.6-7.4,2.1-7.3,1.8-7C1.5-6.8,1.4-6.4,1.4-5.7v1.1h4.2v3.5H1.4v11.8h-4.9V-1.2h-2.4v-3.5h2.4v-1.1
		c0-1.7,0.5-2.9,1.4-3.7c0.9-0.8,2.4-1.2,4.3-1.2L5.9-10.6z"/>
</symbol>
<symbol  id="h" viewBox="-7.7 -10.6 15.4 21.3">
	<path d="M7.7,1.3v9.3H2.8V3.5c0-1.3,0-2.3-0.1-2.8S2.5-0.1,2.4-0.3C2.2-0.7,1.9-0.9,1.6-1.1C1.3-1.3,0.9-1.3,0.5-1.3
		c-1,0-1.8,0.4-2.4,1.2c-0.6,0.8-0.9,1.9-0.9,3.3v7.5h-4.9v-21.3h4.9v8.2c0.7-0.9,1.5-1.5,2.3-2C0.4-4.8,1.3-5,2.3-5
		c1.8,0,3.1,0.5,4,1.6C7.2-2.3,7.7-0.8,7.7,1.3L7.7,1.3z"/>
</symbol>
<symbol  id="i" viewBox="-2.4 -10.6 4.9 21.3">
	<path d="M-2.4-4.7h4.9v15.3h-4.9L-2.4-4.7z M-2.4-10.6h4.9v4h-4.9L-2.4-10.6z"/>
</symbol>
<symbol  id="j" viewBox="-2.4 -10.6 4.9 21.3">
	<path d="M-2.4-10.6h4.9v21.3h-4.9L-2.4-10.6z"/>
</symbol>
<symbol  id="k" viewBox="-7.7 -7.8 15.4 15.7">
	<path d="M7.7-1.5v9.3H2.8V0.7c0-1.3,0-2.2-0.1-2.7S2.5-2.9,2.4-3.1C2.2-3.5,1.9-3.7,1.6-3.9C1.3-4.1,0.9-4.1,0.5-4.1
		c-1,0-1.8,0.4-2.4,1.2c-0.6,0.8-0.9,1.9-0.9,3.3v7.5h-4.9V-7.5h4.9v2.2c0.7-0.9,1.5-1.5,2.3-2c0.8-0.4,1.8-0.6,2.8-0.6
		c1.8,0,3.1,0.5,4,1.6C7.2-5.1,7.7-3.5,7.7-1.5L7.7-1.5z"/>
</symbol>
<symbol  id="l" viewBox="-8.7 -10.7 17.4 21.4">
	<path d="M-8.7-10.7h4.9L0.3-0.3l3.5-10.4h4.9L2.3,6.1C1.6,7.8,0.9,9,0,9.6c-0.9,0.7-2,1-3.4,1h-2.8V7.5h1.5c0.8,0,1.4-0.1,1.8-0.4
		C-2.5,6.8-2.2,6.3-2,5.6l0.1-0.4L-8.7-10.7z"/>
</symbol>
<symbol  id="m" viewBox="-8.2 -10.8 16.4 21.7">
	<path d="M-0.1,7.3c1.1,0,1.9-0.4,2.4-1.1c0.6-0.8,0.8-1.9,0.8-3.3c0-1.5-0.3-2.6-0.8-3.3C1.8-1.3,1-1.7-0.1-1.7
		c-1.1,0-1.9,0.4-2.4,1.2C-3,0.2-3.3,1.4-3.3,2.8c0,1.4,0.3,2.6,0.8,3.3C-1.9,6.9-1.1,7.3-0.1,7.3L-0.1,7.3z M-3.3-2.6
		c0.7-0.9,1.4-1.5,2.2-2C-0.3-5,0.7-5.2,1.7-5.2c1.9,0,3.4,0.8,4.7,2.2c1.2,1.5,1.8,3.4,1.8,5.8c0,2.4-0.6,4.3-1.8,5.8
		c-1.2,1.5-2.8,2.2-4.7,2.2c-1.1,0-2-0.2-2.8-0.6c-0.8-0.4-1.6-1.1-2.2-2v2.2h-4.9v-21.3h4.9V-2.6z"/>
</symbol>
<symbol  id="n" viewBox="-8.2 -10.8 16.4 21.7">
	<path d="M3.3-2.6v-8.2h4.9v21.3H3.3V8.2c-0.7,0.9-1.4,1.6-2.2,2c-0.8,0.4-1.8,0.6-2.8,0.6c-1.9,0-3.4-0.8-4.6-2.2
		c-1.2-1.5-1.8-3.4-1.8-5.8c0-2.4,0.6-4.3,1.8-5.8c1.2-1.5,2.8-2.2,4.6-2.2c1.1,0,2,0.2,2.8,0.6C1.9-4.2,2.6-3.5,3.3-2.6L3.3-2.6z
		 M0.1,7.3c1,0,1.8-0.4,2.4-1.1C3,5.4,3.3,4.3,3.3,2.8c0-1.5-0.3-2.6-0.8-3.3C1.9-1.3,1.1-1.7,0.1-1.7c-1,0-1.8,0.4-2.4,1.2
		c-0.6,0.8-0.8,1.9-0.8,3.3c0,1.5,0.3,2.6,0.8,3.3C-1.8,6.9-1,7.3,0.1,7.3z"/>
</symbol>
<symbol  id="o" viewBox="-6.8 -8 13.5 16.1">
	<path d="M6.8-7.2v4c-0.7-0.5-1.3-0.8-2-1C4.1-4.4,3.4-4.5,2.7-4.5c-1.4,0-2.4,0.4-3.2,1.2C-1.3-2.5-1.7-1.4-1.7,0
		c0,1.4,0.4,2.5,1.1,3.3c0.8,0.8,1.8,1.2,3.2,1.2c0.8,0,1.5-0.1,2.2-0.3c0.7-0.2,1.3-0.6,1.9-1v4C6,7.5,5.2,7.7,4.4,7.8
		C3.6,8,2.9,8,2.1,8c-2.8,0-4.9-0.7-6.5-2.1C-6,4.5-6.8,2.5-6.8,0c0-2.5,0.8-4.5,2.3-5.9C-2.9-7.3-0.7-8,2.1-8C2.9-8,3.6-8,4.4-7.8
		C5.2-7.7,6-7.5,6.8-7.2L6.8-7.2z"/>
</symbol>
<symbol  id="p" viewBox="-4.1 -13.7 8.2 27.3">
	<path d="M-0.8-7.7h4.9v15c0,2.1-0.5,3.6-1.5,4.7c-1,1.1-2.4,1.6-4.3,1.6h-2.4v-3.2h0.9c0.9,0,1.6-0.2,1.9-0.6
		C-1,9.4-0.8,8.6-0.8,7.3L-0.8-7.7z M-0.8-13.7h4.9v4h-4.9L-0.8-13.7z"/>
</symbol>
<symbol  id="q" viewBox="-8.4 -10.2 16.8 20.4">
	<path d="M-8.4-10.2h8.7c2.6,0,4.6,0.6,6,1.7c1.4,1.1,2.1,2.8,2.1,4.9c0,2.1-0.7,3.8-2.1,4.9c-1.4,1.2-3.4,1.7-6,1.7h-3.5v7.1h-5.2
		V-10.2z M-3.1-6.4v5.7h2.9c1,0,1.8-0.2,2.4-0.8C2.7-1.9,3-2.6,3-3.5c0-0.9-0.3-1.6-0.8-2.1C1.6-6.1,0.8-6.4-0.2-6.4L-3.1-6.4z"/>
</symbol>
<symbol  id="r" viewBox="-7.7 -7.9 15.4 15.7">
	<path d="M-7.7,1.5v-9.3h4.9v1.5c0,0.8,0,1.9,0,3.1c0,1.3,0,2.1,0,2.5c0,1.2,0,2.1,0.1,2.7c0.1,0.5,0.2,0.9,0.3,1.2
		c0.2,0.3,0.5,0.6,0.8,0.8c0.3,0.2,0.7,0.2,1.1,0.2c1,0,1.8-0.4,2.4-1.2c0.6-0.8,0.9-1.9,0.9-3.3v-7.6h4.9V7.5H2.8V5.2
		c-0.7,0.9-1.5,1.6-2.3,2c-0.8,0.4-1.7,0.6-2.7,0.6c-1.8,0-3.1-0.5-4-1.6C-7.2,5.1-7.7,3.6-7.7,1.5L-7.7,1.5z"/>
</symbol>
<symbol  id="s" viewBox="-12.3 -7.8 24.6 15.7">
	<path d="M1.9-4.9c0.6-0.9,1.3-1.7,2.2-2.2C5-7.6,5.9-7.8,6.9-7.8c1.8,0,3.1,0.5,4,1.6c0.9,1.1,1.4,2.7,1.4,4.7v9.3H7.4v-8v-0.4
		c0-0.1,0-0.3,0-0.6c0-1.1-0.2-1.9-0.5-2.3C6.6-3.9,6.1-4.1,5.4-4.1C4.5-4.1,3.8-3.8,3.2-3C2.7-2.2,2.5-1.1,2.5,0.3v7.5h-4.9v-8
		c0-1.7-0.1-2.8-0.4-3.3c-0.3-0.5-0.8-0.7-1.6-0.7c-0.9,0-1.7,0.4-2.2,1.2c-0.5,0.8-0.8,1.9-0.8,3.3v7.5h-4.9V-7.5h4.9v2.2
		c0.6-0.9,1.3-1.5,2.1-2c0.8-0.4,1.6-0.7,2.6-0.7c1.1,0,2,0.3,2.8,0.8C0.9-6.6,1.5-5.8,1.9-4.9L1.9-4.9z"/>
</symbol>
<symbol  id="t" viewBox="-9.8 -10.6 19.5 21.2">
	<path d="M9.8,8.7c-1.3,0.6-2.7,1.1-4.1,1.4c-1.4,0.3-2.9,0.5-4.4,0.5c-3.4,0-6.1-0.9-8.1-2.8c-2-1.9-3-4.5-3-7.7c0-3.3,1-5.9,3-7.8
		c2-1.9,4.8-2.8,8.3-2.8c1.4,0,2.6,0.1,3.9,0.4C6.7-9.9,7.9-9.6,9-9.1v4.2C7.9-5.5,6.7-6,5.6-6.3C4.5-6.6,3.4-6.8,2.2-6.8
		C0.1-6.8-1.5-6.2-2.6-5c-1.1,1.2-1.7,2.8-1.7,5c0,2.2,0.5,3.8,1.6,5C-1.6,6.2,0,6.8,2,6.8c0.5,0,1,0,1.5-0.1C4,6.6,4.4,6.5,4.8,6.4
		v-4H1.6v-3.5h8.2L9.8,8.7z"/>
</symbol>
<symbol  id="u" viewBox="-12 -7.7 23.9 15.3">
	<path d="M-12-7.7h4.8l2.6,10.5L-2-7.7H2L4.6,2.8L7.2-7.7H12l-4,15.3H2.6L0-2.9L-2.6,7.7h-5.3L-12-7.7z"/>
</symbol>
<symbol  id="v" viewBox="-8.7 -10.6 17.4 21.2">
	<path d="M8.7,9.1c-1,0.5-2,0.9-3,1.1c-1,0.3-2.1,0.4-3.3,0.4c-3.4,0-6.1-0.9-8.1-2.8c-2-1.9-3-4.5-3-7.7c0-3.3,1-5.8,3-7.7
		c2-1.9,4.7-2.9,8.1-2.9c1.1,0,2.2,0.1,3.3,0.4c1.1,0.2,2.1,0.6,3,1.1v4.2C7.7-5.5,6.7-6,5.8-6.3c-0.9-0.3-1.9-0.5-3-0.5
		C0.9-6.8-0.6-6.2-1.6-5c-1.1,1.2-1.6,2.9-1.6,5c0,2.1,0.5,3.8,1.6,5c1.1,1.2,2.5,1.8,4.4,1.8c1.1,0,2.1-0.1,3-0.5
		C6.7,6,7.7,5.5,8.7,4.9V9.1z"/>
</symbol>
<path class="st0" d="M1050.6,159.2c-151.8,0-274.4,122.6-274.4,274.4S898.8,708,1050.6,708S1325,585.3,1325,433.6
	S1202.3,159.2,1050.6,159.2L1050.6,159.2z M1197.3,442l-219,134.4c-6.7,3.9-15.7-0.6-15.7-8.4V299.2c0-7.8,9-12.9,15.7-8.4
	l219,134.4C1203.5,429.1,1203.5,438.1,1197.3,442L1197.3,442z"/>
<use xlink:href="#v"  width="17.4" height="21.2" x="-8.7" y="-10.6" transform="matrix(1 0 0 1 80.0786 633.8046)" style="overflow:visible;"/>
<use xlink:href="#c"  width="11.4" height="15.7" x="-5.7" y="-7.8" transform="matrix(1 0 0 1 98.5973 636.1561)" style="overflow:visible;"/>
<use xlink:href="#a"  width="16.4" height="16.1" x="-8.2" y="-8" transform="matrix(1 0 0 1 113.7816 636.3516)" style="overflow:visible;"/>
<use xlink:href="#e"  width="15.5" height="16.1" x="-7.7" y="-8" transform="matrix(1 0 0 1 132.293 636.3515)" style="overflow:visible;"/>
<use xlink:href="#b"  width="12.4" height="19.7" x="-6.2" y="-9.8" transform="matrix(1 0 0 1 148.8047 634.1721)" style="overflow:visible;"/>
<g>
	<defs>
		<rect id="SVGID_1_" x="155.6" y="644" width="700" height="700"/>
	</defs>
	<clipPath id="SVGID_00000060731370183618324750000008886314523900982458_">
		<use xlink:href="#SVGID_1_"  style="overflow:visible;"/>
	</clipPath>
	<g style="clip-path:url(#SVGID_00000060731370183618324750000008886314523900982458_);">
		
			<use xlink:href="#a"  width="16.4" height="16.1" x="-8.2" y="-8" transform="matrix(1 0 0 1 165.0511 636.3516)" style="overflow:visible;"/>
	</g>
</g>
<use xlink:href="#n"  width="16.4" height="21.7" x="-8.2" y="-10.8" transform="matrix(1 0 0 1 184.0941 633.5547)" style="overflow:visible;"/>
<use xlink:href="#m"  width="16.4" height="21.7" x="-8.2" y="-10.8" transform="matrix(1 0 0 1 214.9805 633.5548)" style="overflow:visible;"/>
<use xlink:href="#l"  width="17.4" height="21.4" x="-8.7" y="-10.7" transform="matrix(1 0 0 1 233.5 639.3679)" style="overflow:visible;"/>
<use xlink:href="#d"  width="18.3" height="20.4" x="-9.1" y="-10.2" transform="matrix(1 0 0 1 264.1719 633.797)" style="overflow:visible;"/>
<g>
	<defs>
		<rect id="SVGID_00000066504502368591858510000001614471191236716182_" x="275.9" y="644" width="700" height="700"/>
	</defs>
	<clipPath id="SVGID_00000169546895294542443780000001210209560664605630_">
		<use xlink:href="#SVGID_00000066504502368591858510000001614471191236716182_"  style="overflow:visible;"/>
	</clipPath>
	<g style="clip-path:url(#SVGID_00000169546895294542443780000001210209560664605630_);">
		
			<use xlink:href="#e"  width="15.5" height="16.1" x="-7.7" y="-8" transform="matrix(1 0 0 1 284.8282 636.3515)" style="overflow:visible;"/>
	</g>
</g>
<g>
	<defs>
		<rect id="SVGID_00000167371345460761328280000013218528998003906223_" x="294.8" y="644" width="700" height="700"/>
	</defs>
	<clipPath id="SVGID_00000094612263133056336100000013403734065758588839_">
		<use xlink:href="#SVGID_00000167371345460761328280000013218528998003906223_"  style="overflow:visible;"/>
	</clipPath>
	<g style="clip-path:url(#SVGID_00000094612263133056336100000013403734065758588839_);">
		
			<use xlink:href="#b"  width="12.4" height="19.7" x="-6.2" y="-9.8" transform="matrix(1 0 0 1 301.3438 634.1721)" style="overflow:visible;"/>
	</g>
</g>
<use xlink:href="#h"  width="15.4" height="21.3" x="-7.7" y="-10.6" transform="matrix(1 0 0 1 318.2188 633.3594)" style="overflow:visible;"/>
<g>
	<defs>
		<rect id="SVGID_00000088114461731196341740000006424077107955602059_" x="328.1" y="644" width="700" height="700"/>
	</defs>
	<clipPath id="SVGID_00000046326036089124935040000005102411505708405656_">
		<use xlink:href="#SVGID_00000088114461731196341740000006424077107955602059_"  style="overflow:visible;"/>
	</clipPath>
	<g style="clip-path:url(#SVGID_00000046326036089124935040000005102411505708405656_);">
		
			<use xlink:href="#e"  width="15.5" height="16.1" x="-7.7" y="-8" transform="matrix(1 0 0 1 337.043 636.3515)" style="overflow:visible;"/>
	</g>
</g>
<use xlink:href="#k"  width="15.4" height="15.7" x="-7.7" y="-7.8" transform="matrix(1 0 0 1 357.0469 636.1564)" style="overflow:visible;"/>
<g>
	<defs>
		<rect id="SVGID_00000041999202045890532740000018076790414538402478_" x="376.7" y="644" width="700" height="700"/>
	</defs>
	<clipPath id="SVGID_00000003792778159997348640000008801471393140678062_">
		<use xlink:href="#SVGID_00000041999202045890532740000018076790414538402478_"  style="overflow:visible;"/>
	</clipPath>
	<g style="clip-path:url(#SVGID_00000003792778159997348640000008801471393140678062_);">
		
			<use xlink:href="#d"  width="18.3" height="20.4" x="-9.1" y="-10.2" transform="matrix(1 0 0 1 388.3906 633.797)" style="overflow:visible;"/>
	</g>
</g>
<g>
	<defs>
		<rect id="SVGID_00000039124349534506472690000007171927584302837159_" x="400.1" y="644" width="700" height="700"/>
	</defs>
	<clipPath id="SVGID_00000067919167855480393480000009844021154842985608_">
		<use xlink:href="#SVGID_00000039124349534506472690000007171927584302837159_"  style="overflow:visible;"/>
	</clipPath>
	<g style="clip-path:url(#SVGID_00000067919167855480393480000009844021154842985608_);">
		
			<use xlink:href="#a"  width="16.4" height="16.1" x="-8.2" y="-8" transform="matrix(1 0 0 1 409.5316 636.3516)" style="overflow:visible;"/>
	</g>
</g>
<use xlink:href="#u"  width="23.9" height="15.3" x="-12" y="-7.7" transform="matrix(1 0 0 1 432.0351 636.344)" style="overflow:visible;"/>
<g>
	<defs>
		<rect id="SVGID_00000175313425114366023500000011505946557497426589_" x="445" y="644" width="700" height="700"/>
	</defs>
	<clipPath id="SVGID_00000155106251503959941620000003869110492201363860_">
		<use xlink:href="#SVGID_00000175313425114366023500000011505946557497426589_"  style="overflow:visible;"/>
	</clipPath>
	<g style="clip-path:url(#SVGID_00000155106251503959941620000003869110492201363860_);">
		
			<use xlink:href="#a"  width="16.4" height="16.1" x="-8.2" y="-8" transform="matrix(1 0 0 1 454.3871 636.3516)" style="overflow:visible;"/>
	</g>
</g>
<use xlink:href="#j"  width="4.9" height="21.3" x="-2.4" y="-10.6" transform="matrix(1 0 0 1 468.7578 633.3595)" style="overflow:visible;"/>
<g>
	<defs>
		<rect id="SVGID_00000016041898191727104970000013785371720771063471_" x="473.6" y="644" width="700" height="700"/>
	</defs>
	<clipPath id="SVGID_00000096758028220013711110000006769545159157622461_">
		<use xlink:href="#SVGID_00000016041898191727104970000013785371720771063471_"  style="overflow:visible;"/>
	</clipPath>
	<g style="clip-path:url(#SVGID_00000096758028220013711110000006769545159157622461_);">
		
			<use xlink:href="#j"  width="4.9" height="21.3" x="-2.4" y="-10.6" transform="matrix(1 0 0 1 478.3594 633.3595)" style="overflow:visible;"/>
	</g>
</g>
<use xlink:href="#t"  width="19.5" height="21.2" x="-9.8" y="-10.6" transform="matrix(1 0 0 1 504.0548 633.8047)" style="overflow:visible;"/>
<g>
	<defs>
		<rect id="SVGID_00000101080446036618321370000003282459532996700557_" x="515.9" y="644" width="700" height="700"/>
	</defs>
	<clipPath id="SVGID_00000021095398899026385170000005226247834353475750_">
		<use xlink:href="#SVGID_00000101080446036618321370000003282459532996700557_"  style="overflow:visible;"/>
	</clipPath>
	<g style="clip-path:url(#SVGID_00000021095398899026385170000005226247834353475750_);">
		
			<use xlink:href="#c"  width="11.4" height="15.7" x="-5.7" y="-7.8" transform="matrix(1 0 0 1 523.9294 636.1561)" style="overflow:visible;"/>
	</g>
</g>
<use xlink:href="#i"  width="4.9" height="21.3" x="-2.4" y="-10.6" transform="matrix(1 0 0 1 534.4922 633.3596)" style="overflow:visible;"/>
<use xlink:href="#g"  width="11.9" height="21.3" x="-5.9" y="-10.6" transform="matrix(1 0 0 1 545.7658 633.3594)" style="overflow:visible;"/>
<g>
	<defs>
		<rect id="SVGID_00000048475733671620934550000005524687106943203730_" x="551.5" y="644" width="700" height="700"/>
	</defs>
	<clipPath id="SVGID_00000024688764492089473000000002306064301766451843_">
		<use xlink:href="#SVGID_00000048475733671620934550000005524687106943203730_"  style="overflow:visible;"/>
	</clipPath>
	<g style="clip-path:url(#SVGID_00000024688764492089473000000002306064301766451843_);">
		
			<use xlink:href="#g"  width="11.9" height="21.3" x="-5.9" y="-10.6" transform="matrix(1 0 0 1 557.9455 633.3594)" style="overflow:visible;"/>
	</g>
</g>
<g>
	<defs>
		<rect id="SVGID_00000139264563010607200590000005745023919837233322_" x="563.6" y="644" width="700" height="700"/>
	</defs>
	<clipPath id="SVGID_00000168808155235514906790000000251806033128921535_">
		<use xlink:href="#SVGID_00000139264563010607200590000005745023919837233322_"  style="overflow:visible;"/>
	</clipPath>
	<g style="clip-path:url(#SVGID_00000168808155235514906790000000251806033128921535_);">
		
			<use xlink:href="#i"  width="4.9" height="21.3" x="-2.4" y="-10.6" transform="matrix(1 0 0 1 568.4531 633.3596)" style="overflow:visible;"/>
	</g>
</g>
<g>
	<defs>
		<rect id="SVGID_00000149366327688230011780000012859507049999855792_" x="573.2" y="644" width="700" height="700"/>
	</defs>
	<clipPath id="SVGID_00000160187628043985880570000006333839875148203944_">
		<use xlink:href="#SVGID_00000149366327688230011780000012859507049999855792_"  style="overflow:visible;"/>
	</clipPath>
	<g style="clip-path:url(#SVGID_00000160187628043985880570000006333839875148203944_);">
		
			<use xlink:href="#b"  width="12.4" height="19.7" x="-6.2" y="-9.8" transform="matrix(1 0 0 1 579.8125 634.1721)" style="overflow:visible;"/>
	</g>
</g>
<g>
	<defs>
		<rect id="SVGID_00000038378003872157393890000011960084391760892583_" x="586.6" y="644" width="700" height="700"/>
	</defs>
	<clipPath id="SVGID_00000057120145106962616350000002639440237947323829_">
		<use xlink:href="#SVGID_00000038378003872157393890000011960084391760892583_"  style="overflow:visible;"/>
	</clipPath>
	<g style="clip-path:url(#SVGID_00000057120145106962616350000002639440237947323829_);">
		
			<use xlink:href="#h"  width="15.4" height="21.3" x="-7.7" y="-10.6" transform="matrix(1 0 0 1 596.6875 633.3594)" style="overflow:visible;"/>
	</g>
</g>
<g>
	<defs>
		<rect id="SVGID_00000031886423320859455650000011078162098744603325_" x="70" y="672" width="700" height="700"/>
	</defs>
	<clipPath id="SVGID_00000027585633631077857640000003105994911910729363_">
		<use xlink:href="#SVGID_00000031886423320859455650000011078162098744603325_"  style="overflow:visible;"/>
	</clipPath>
	<g style="clip-path:url(#SVGID_00000027585633631077857640000003105994911910729363_);">
		
			<use xlink:href="#g"  width="11.9" height="21.3" x="-5.9" y="-10.6" transform="matrix(1 0 0 1 76.4767 661.3594)" style="overflow:visible;"/>
	</g>
</g>
<g>
	<defs>
		<rect id="SVGID_00000179636483515840697790000012283621218592603804_" x="82.2" y="672" width="700" height="700"/>
	</defs>
	<clipPath id="SVGID_00000078014906777585418040000004222084102812947846_">
		<use xlink:href="#SVGID_00000179636483515840697790000012283621218592603804_"  style="overflow:visible;"/>
	</clipPath>
	<g style="clip-path:url(#SVGID_00000078014906777585418040000004222084102812947846_);">
		
			<use xlink:href="#c"  width="11.4" height="15.7" x="-5.7" y="-7.8" transform="matrix(1 0 0 1 90.2301 664.1561)" style="overflow:visible;"/>
	</g>
</g>
<use xlink:href="#f"  width="16.8" height="16.1" x="-8.4" y="-8" transform="matrix(1 0 0 1 105.6094 664.351)" style="overflow:visible;"/>
<use xlink:href="#s"  width="24.6" height="15.7" x="-12.3" y="-7.8" transform="matrix(1 0 0 1 129.875 664.1558)" style="overflow:visible;"/>
<g>
	<defs>
		<rect id="SVGID_00000116924726848064369000000006080097043723347106_" x="154.2" y="672" width="700" height="700"/>
	</defs>
	<clipPath id="SVGID_00000098901548817647260430000001630730838270096562_">
		<use xlink:href="#SVGID_00000116924726848064369000000006080097043723347106_"  style="overflow:visible;"/>
	</clipPath>
	<g style="clip-path:url(#SVGID_00000098901548817647260430000001630730838270096562_);">
		
			<use xlink:href="#b"  width="12.4" height="19.7" x="-6.2" y="-9.8" transform="matrix(1 0 0 1 160.7148 662.1721)" style="overflow:visible;"/>
	</g>
</g>
<g>
	<defs>
		<rect id="SVGID_00000070796824640907399260000014834412405267138194_" x="167.5" y="672" width="700" height="700"/>
	</defs>
	<clipPath id="SVGID_00000002351049196342607330000004136119229792925826_">
		<use xlink:href="#SVGID_00000070796824640907399260000014834412405267138194_"  style="overflow:visible;"/>
	</clipPath>
	<g style="clip-path:url(#SVGID_00000002351049196342607330000004136119229792925826_);">
		
			<use xlink:href="#h"  width="15.4" height="21.3" x="-7.7" y="-10.6" transform="matrix(1 0 0 1 177.5899 661.3594)" style="overflow:visible;"/>
	</g>
</g>
<g>
	<defs>
		<rect id="SVGID_00000060748151306630901140000015594838325434328968_" x="187.5" y="672" width="700" height="700"/>
	</defs>
	<clipPath id="SVGID_00000114761876549746218900000006365094377574025124_">
		<use xlink:href="#SVGID_00000060748151306630901140000015594838325434328968_"  style="overflow:visible;"/>
	</clipPath>
	<g style="clip-path:url(#SVGID_00000114761876549746218900000006365094377574025124_);">
		
			<use xlink:href="#a"  width="16.4" height="16.1" x="-8.2" y="-8" transform="matrix(1 0 0 1 196.8909 664.3516)" style="overflow:visible;"/>
	</g>
</g>
<g>
	<defs>
		<rect id="SVGID_00000003822591541131172740000002144392382296067004_" x="216.2" y="672" width="700" height="700"/>
	</defs>
	<clipPath id="SVGID_00000114036351796470654690000017509056849106577823_">
		<use xlink:href="#SVGID_00000003822591541131172740000002144392382296067004_"  style="overflow:visible;"/>
	</clipPath>
	<g style="clip-path:url(#SVGID_00000114036351796470654690000017509056849106577823_);">
		
			<use xlink:href="#d"  width="18.3" height="20.4" x="-9.1" y="-10.2" transform="matrix(1 0 0 1 227.9258 661.797)" style="overflow:visible;"/>
	</g>
</g>
<g>
	<defs>
		<rect id="SVGID_00000003081950487926502300000008934227226678014349_" x="239.6" y="672" width="700" height="700"/>
	</defs>
	<clipPath id="SVGID_00000040559155604892111720000008022895241137831328_">
		<use xlink:href="#SVGID_00000003081950487926502300000008934227226678014349_"  style="overflow:visible;"/>
	</clipPath>
	<g style="clip-path:url(#SVGID_00000040559155604892111720000008022895241137831328_);">
		
			<use xlink:href="#f"  width="16.8" height="16.1" x="-8.4" y="-8" transform="matrix(1 0 0 1 249.2578 664.351)" style="overflow:visible;"/>
	</g>
</g>
<use xlink:href="#r"  width="15.4" height="15.7" x="-7.7" y="-7.9" transform="matrix(1 0 0 1 268.7617 664.5387)" style="overflow:visible;"/>
<g>
	<defs>
		<rect id="SVGID_00000036233964691905562520000007603973937269588873_" x="278.8" y="672" width="700" height="700"/>
	</defs>
	<clipPath id="SVGID_00000088119307190895799660000010058671711947325366_">
		<use xlink:href="#SVGID_00000036233964691905562520000007603973937269588873_"  style="overflow:visible;"/>
	</clipPath>
	<g style="clip-path:url(#SVGID_00000088119307190895799660000010058671711947325366_);">
		
			<use xlink:href="#k"  width="15.4" height="15.7" x="-7.7" y="-7.8" transform="matrix(1 0 0 1 288.8672 664.1564)" style="overflow:visible;"/>
	</g>
</g>
<use xlink:href="#q"  width="16.8" height="20.4" x="-8.4" y="-10.2" transform="matrix(1 0 0 1 319.4688 661.7971)" style="overflow:visible;"/>
<g>
	<defs>
		<rect id="SVGID_00000048482234949181210180000010297732742030824068_" x="329" y="672" width="700" height="700"/>
	</defs>
	<clipPath id="SVGID_00000090267182006095215130000007324863660710763660_">
		<use xlink:href="#SVGID_00000048482234949181210180000010297732742030824068_"  style="overflow:visible;"/>
	</clipPath>
	<g style="clip-path:url(#SVGID_00000090267182006095215130000007324863660710763660_);">
		
			<use xlink:href="#c"  width="11.4" height="15.7" x="-5.7" y="-7.8" transform="matrix(1 0 0 1 337.0622 664.1561)" style="overflow:visible;"/>
	</g>
</g>
<g>
	<defs>
		<rect id="SVGID_00000042000538150014196130000012061979201554870719_" x="342.8" y="672" width="700" height="700"/>
	</defs>
	<clipPath id="SVGID_00000098928823422631131370000014612160648938939779_">
		<use xlink:href="#SVGID_00000042000538150014196130000012061979201554870719_"  style="overflow:visible;"/>
	</clipPath>
	<g style="clip-path:url(#SVGID_00000098928823422631131370000014612160648938939779_);">
		
			<use xlink:href="#f"  width="16.8" height="16.1" x="-8.4" y="-8" transform="matrix(1 0 0 1 352.4375 664.351)" style="overflow:visible;"/>
	</g>
</g>
<use xlink:href="#p"  width="8.2" height="27.3" x="-4.1" y="-13.7" transform="matrix(1 0 0 1 365.2148 664.3832)" style="overflow:visible;"/>
<g>
	<defs>
		<rect id="SVGID_00000094593320134576962030000008819440365501299627_" x="371.7" y="672" width="700" height="700"/>
	</defs>
	<clipPath id="SVGID_00000038404381559404296850000010172405389051725483_">
		<use xlink:href="#SVGID_00000094593320134576962030000008819440365501299627_"  style="overflow:visible;"/>
	</clipPath>
	<g style="clip-path:url(#SVGID_00000038404381559404296850000010172405389051725483_);">
		
			<use xlink:href="#a"  width="16.4" height="16.1" x="-8.2" y="-8" transform="matrix(1 0 0 1 381.0785 664.3516)" style="overflow:visible;"/>
	</g>
</g>
<use xlink:href="#o"  width="13.5" height="16.1" x="-6.8" y="-8" transform="matrix(1 0 0 1 398.6096 664.3519)" style="overflow:visible;"/>
<g>
	<defs>
		<rect id="SVGID_00000097490594643620345000000005053676548042776757_" x="407.2" y="672" width="700" height="700"/>
	</defs>
	<clipPath id="SVGID_00000035512220453284489520000012525828364512296379_">
		<use xlink:href="#SVGID_00000097490594643620345000000005053676548042776757_"  style="overflow:visible;"/>
	</clipPath>
	<g style="clip-path:url(#SVGID_00000035512220453284489520000012525828364512296379_);">
		
			<use xlink:href="#b"  width="12.4" height="19.7" x="-6.2" y="-9.8" transform="matrix(1 0 0 1 413.8047 662.1721)" style="overflow:visible;"/>
	</g>
</g>
<path class="st1" d="M1726.8,163.6c-151.1,0-273.6,122.5-273.6,273.6s122.5,273.6,273.6,273.6s273.6-122.5,273.6-273.6
	S1877.9,163.6,1726.8,163.6z M1884.9,446.6c0,11.6-9.4,21-21,21h-106.8v106.8c0,11.6-9.4,21-21,21h-18.8c-11.6,0-21-9.4-21-21V467.5
	h-106.8c-11.6,0-21-9.4-21-21v-18.8c0-11.6,9.4-21,21-21h106.8V300c0-11.6,9.4-21,21-21h18.8c11.6,0,21,9.4,21,21v106.8H1864
	c11.6,0,21,9.4,21,21V446.6z"/>
</svg>
