<?xml version="1.0" encoding="utf-8"?>
<!-- Generator: Adobe Illustrator 26.3.1, SVG Export Plug-In . SVG Version: 6.00 Build 0)  -->
<svg version="1.1" id="Calque_1" xmlns="http://www.w3.org/2000/svg" xmlns:xlink="http://www.w3.org/1999/xlink" x="0px" y="0px"
	 width="700px" height="700px" viewBox="0 0 700 700" style="enable-background:new 0 0 700 700;" xml:space="preserve">
<style type="text/css">
	.st0{fill:#FFFFFF;}
</style>
<path class="st0" d="M350,0C195.4,0,70,125.4,70,280s125.4,280,280,280s280-125.4,280-280S504.6,0,350,0z M350,517.4
	C219,517.4,112.6,411,112.6,280S219,42.6,350,42.6S587.4,149,587.4,280S481,517.4,350,517.4z"/>
<path class="st0" d="M497.8,280c0,81.6-66.2,147.8-147.8,147.8S202.2,361.6,202.2,280S268.4,132.2,350,132.2S497.8,198.4,497.8,280"
	/>
</svg>
