<?xml version="1.0" encoding="UTF-8"?>
<svg width="700pt" height="700pt" version="1.1" viewBox="0 0 700 700" xmlns="http://www.w3.org/2000/svg">
 <g>
  <path d="m455.48 346.53c-41.16 16.594-79.918 38.613-115.25 65.465-11.379 9.8789-37.078 33.332-31.949 51.809 4.6953 16.898 36.672 14.547 50.137 14.547 47.914 0 93.969-18.551 128.51-51.762 34.539-33.207 54.883-78.5 56.762-126.38-28.824 16.469-58.328 31.875-88.207 46.32z"/>
  <path d="m180.99 381.18c8.2422 0 17.219-0.42969 26.801-1.2969 1.1211-0.085938 2.1992-0.21484 3.3242-0.34375 57.586-7.0586 114.07-21.266 168.14-42.293 55.676-19.918 108.57-46.883 157.39-80.23 2.2031-1.5938 4.3633-3.1914 6.4336-4.7891 41.863-31.68 58.562-59.945 49.543-83.984-9.4492-25.289-43.246-35.52-100.52-30.383l0.003906-0.003906c-0.23438 0.007813-0.46484 0.039063-0.69531 0.089844-33.359-34.457-78.781-54.637-126.71-56.297-47.934-1.6602-94.641 15.332-130.3 47.402-35.66 32.066-57.5 76.715-60.922 124.55-47.773 32.324-77.121 66.723-66.203 95.938 7.9023 21.02 32.629 31.637 73.715 31.637zm337.62-210.05c30.812 0 40.828 6.9883 41.648 9.1484v0.042969c0.82031 2.1133-2.0703 13.637-24.34 33.273-4.4688-14.879-10.809-29.133-18.859-42.422 0.51562-0.042969 1.0352-0.042969 1.5508-0.042969zm-343.49 123.86c2.6758 17.82 7.9844 35.141 15.75 51.402-38.367 1.6406-50.32-6.5586-51.227-8.9336-0.90625-2.4609 3.0234-17.262 35.477-42.469z"/>
 </g>
</svg>
