<?xml version="1.0" encoding="iso-8859-1"?>
<!-- Generator: Adobe Illustrator 26.3.1, SVG Export Plug-In . SVG Version: 6.00 Build 0)  -->
<svg version="1.1" id="Calque_1" xmlns="http://www.w3.org/2000/svg" xmlns:xlink="http://www.w3.org/1999/xlink" x="0px" y="0px"
	 width="670.17px" height="616.825px" viewBox="0 0 670.17 616.825" enable-background="new 0 0 670.17 616.825"
	 xml:space="preserve">
<g>
	<path fill="#FFFFFF" d="M522.199,366.158c-53.269,40.213-100.929,87.362-141.721,140.184
		c-12.656,18.798-40.793,62.92-26.107,87.739c13.433,22.702,58.947,6.763,78.499,1.497
		c69.579-18.758,129.187-63.727,166.343-125.475c37.15-61.743,48.959-135.48,32.945-205.738
		C596.749,299.561,559.935,333.48,522.199,366.158L522.199,366.158z"/>
	<path fill="#FFFFFF" d="M137.178,523.94c11.966-3.225,24.836-7.366,38.409-12.378c1.595-0.563,3.109-1.172,4.692-1.798
		c80.854-32.794,157.312-75.541,227.599-127.244c73.047-50.722,139.297-110.586,197.136-178.123
		c2.575-3.178,5.087-6.345,7.465-9.472c48.385-62.392,61.569-109.977,39.058-141.35c-23.624-33.02-76.701-34.644-157.863-4.762
		l0.006-0.006c-0.331,0.099-0.655,0.232-0.969,0.4C430.777,12.232,356.918,0.713,286.672,17.069
		C216.42,33.42,155.246,76.382,116.025,136.912c-39.227,60.525-53.46,133.908-39.702,204.711
		C19.609,407.27-9.543,468.711,17.753,506.859C37.456,534.288,77.518,540.024,137.178,523.94L137.178,523.94z M545.197,86.741
		c44.742-12.064,62.021-5.835,64.057-3.022l0.017,0.064c2.018,2.749,2.332,20.614-22.319,57.845
		c-12.314-19.854-27.104-38.072-43.994-54.22C543.695,87.147,544.449,86.944,545.197,86.741L545.197,86.741z M94.913,401.081
		c10.864,24.831,25.353,47.904,42.997,68.477c-55.073,17.406-75.64,10.179-77.885,7.082
		C57.739,473.421,57.652,450.394,94.913,401.081L94.913,401.081z"/>
</g>
<rect x="-0.431" y="-0.668" fill="none" width="671.149" height="618.385"/>
</svg>
