<?xml version="1.0" encoding="utf-8"?>
<!-- Generator: Adobe Illustrator 26.4.1, SVG Export Plug-In . SVG Version: 6.00 Build 0)  -->
<svg version="1.1" id="Calque_1" xmlns="http://www.w3.org/2000/svg" xmlns:xlink="http://www.w3.org/1999/xlink" x="0px" y="0px"
	 width="452px" height="469px" viewBox="0 0 452 469" style="enable-background:new 0 0 452 469;" xml:space="preserve">
<style type="text/css">
	.st0{fill:#FFFFFF;}
</style>
<g>
	<path class="st0" d="M138.5,444.5h175c32.5,0,63.6-13,86.6-35.9S436,354.5,436,322V147c0-32.5-13-63.6-35.9-86.6
		c-23-23-54.1-35.9-86.6-35.9h-175c-32.5,0-63.6,13-86.6,35.9S16,114.5,16,147v175c0,32.5,13,63.6,35.9,86.6S106,444.5,138.5,444.5
		L138.5,444.5z M51,147c0-23.2,9.3-45.4,25.7-61.8s38.6-25.6,61.8-25.7h175c23.2,0,45.4,9.3,61.8,25.7s25.6,38.6,25.7,61.8v175
		c0,23.2-9.3,45.4-25.7,61.8s-38.6,25.6-61.8,25.7h-175c-23.2,0-45.4-9.3-61.8-25.7S51,345.2,51,322V147z"/>
	<path class="st0" d="M147.2,252h61.2v61.2c0,6.3,3.3,12,8.8,15.2s12.1,3.1,17.5,0s8.8-8.9,8.8-15.2V252h61.3c6.3,0,12-3.3,15.2-8.8
		s3.1-12.1,0-17.5s-8.9-8.8-15.2-8.8h-61.3v-61.2c0-6.3-3.3-12-8.8-15.2s-12.1-3.1-17.5,0s-8.8,8.9-8.8,15.2V217h-61.2
		c-6.3,0-12,3.3-15.2,8.8s-3.1,12.1,0,17.5S141,252,147.2,252z"/>
</g>
</svg>
