
<!-- Generator: Adobe Illustrator 26.4.1, SVG Export Plug-In . SVG Version: 6.00 Build 0)  -->
<svg version="1.1" id="Calque_1"  x="0px" y="0px"
	 width="582.8px" height="582.8px" viewBox="0 0 582.8 582.8" style="enable-background:new 0 0 582.8 582.8;" 
	>
<style type="text/css">
	.st0{fill:#FFFFFF;}
</style>
<path class="st0" d="M52.5,403.9l-7.3,80.6c-1.1,12.5,3,24.9,11.5,34.1c8.5,9.3,20.4,14.5,32.9,14.5c1.3,0,2.7,0,4.1-0.2l80.6-7.3h0
	c21.4-1.9,41.3-11.3,56.5-26.5L438,292l78.5-78.4c13.6-13.6,21.2-32,21.2-51.2c0-19.2-7.6-37.6-21.2-51.2l-49.4-49.4
	c-13.6-13.6-32-21.2-51.2-21.2c-19.2,0-37.6,7.6-51.2,21.2l-78.4,78.4L79,347.3C63.8,362.5,54.4,382.5,52.5,403.9L52.5,403.9z
	 M405.6,102.6c2.7-2.7,6.4-4.2,10.2-4.2c3.8,0,7.5,1.5,10.3,4.2l49.4,49.4c2.7,2.7,4.2,6.4,4.2,10.3c0,3.8-1.5,7.5-4.2,10.2
	L438,209.9l-69.9-69.9L405.6,102.6z M110.2,409.1c0.7-7.9,4.2-15.2,9.7-20.8l207.2-207.2L397,251L189.8,458.2
	c-5.6,5.6-12.9,9-20.8,9.7l-64.7,5.9L110.2,409.1z"/>
</svg>
