<?xml version="1.0" encoding="utf-8"?>
<!-- Generator: Adobe Illustrator 26.4.1, SVG Export Plug-In . SVG Version: 6.00 Build 0)  -->
<svg version="1.1" id="Calque_1" xmlns="http://www.w3.org/2000/svg" xmlns:xlink="http://www.w3.org/1999/xlink" x="0px" y="0px"
	 width="16px" height="16px" viewBox="0 0 16 16" style="enable-background:new 0 0 16 16;" xml:space="preserve">
<style type="text/css">
	.st0{fill:#FFFFFF;}
</style>
<g>
	<path class="st0" d="M11.7,9.2c-1.1,0.8-2,1.8-2.9,2.8c-0.3,0.4-0.8,1.3-0.5,1.8c0.3,0.5,1.2,0.1,1.6,0c1.4-0.4,2.6-1.3,3.4-2.5
		c0.8-1.2,1-2.7,0.7-4.2C13.2,7.8,12.4,8.5,11.7,9.2L11.7,9.2z"/>
	<path class="st0" d="M3.9,12.4c0.2-0.1,0.5-0.1,0.8-0.3c0,0,0.1,0,0.1,0c1.6-0.7,3.2-1.5,4.6-2.6c1.5-1,2.8-2.2,4-3.6
		c0.1-0.1,0.1-0.1,0.2-0.2c1-1.3,1.2-2.2,0.8-2.9c-0.5-0.7-1.6-0.7-3.2-0.1l0,0c0,0,0,0,0,0C9.8,2,8.3,1.8,6.9,2.1
		C5.5,2.5,4.3,3.3,3.5,4.5C2.7,5.8,2.4,7.3,2.7,8.7C1.5,10,0.9,11.3,1.5,12C1.9,12.6,2.7,12.7,3.9,12.4L3.9,12.4z M12.2,3.5
		c0.9-0.2,1.3-0.1,1.3-0.1l0,0c0,0.1,0,0.4-0.5,1.2C12.7,4.2,12.4,3.9,12.2,3.5C12.1,3.5,12.1,3.5,12.2,3.5L12.2,3.5z M3.1,9.9
		c0.2,0.5,0.5,1,0.9,1.4c-1.1,0.4-1.5,0.2-1.6,0.1C2.3,11.3,2.3,10.9,3.1,9.9L3.1,9.9z"/>
</g>
</svg>
