
<!-- Generator: Adobe Illustrator 26.4.1, SVG Export Plug-In . SVG Version: 6.00 Build 0)  -->
<svg version="1.1" id="X" xmlns="http://www.w3.org/2000/svg"  x="0px" y="0px"
	 width="562.4px" height="554.9px" viewBox="0 0 562.4 554.9" style="enable-background:new 0 0 562.4 554.9;" xml:space="preserve"
	>
<style type="text/css">
	.st0{fill:#FFFFFF;}
</style>
<path class="st0" d="M396,161.2c-5.6-5.6-15.1-5.6-21.3,0l-93.5,93.5l-93.5-93.5c-5.6-5.6-15.1-5.6-21.3,0c-5.6,5.6-5.6,15.1,0,21.3
	l93.5,93.5l-93.5,93.5c-5.6,5.6-5.6,15.1,0,21.3c2.8,2.8,6.7,4.5,10.6,4.5s7.8-1.7,10.6-4.5l93.5-93.5l93.5,93.5
	c2.8,2.8,6.7,4.5,10.6,4.5s7.8-1.7,10.6-4.5c5.6-5.6,5.6-15.1,0-21.3L302.5,276l93.5-93.5C401.6,176.8,401.6,167.3,396,161.2
	L396,161.2z"/>
<path class="st0" d="M281.2,10.1c-146.7,0-266,119.3-266,266s119.3,266,266,266s266-119.3,266-266S427.9,10.1,281.2,10.1z
	 M281.2,512.4c-130.5,0-236.3-105.8-236.3-236.3S150.7,39.8,281.2,39.8s236.3,105.8,236.3,236.3S411.7,512.4,281.2,512.4z"/>
</svg>




